<svg width="374" height="205" viewBox="0 0 374 205" fill="none" xmlns="http://www.w3.org/2000/svg">
<path d="M373.4 20.6V0H0V161H203.7V84.8H169.7V127H118.5V84.8H42.6V127H34.1V34.1H339.4V170.1H0V204.1H373.4V20.7V20.6ZM76.6 118.8H84.5V127H76.6V118.8Z" fill="#0068E3"/>
<path d="M254.7 42.6V118.8H297.1V127H254.7V161H331.1V42.6H254.7ZM288.7 84.8V76.6H297V84.8H288.7Z" fill="#0068E3"/>
<path d="M246.3 42.4H212.3V161H246.3V42.4Z" fill="#0068E3"/>
<path d="M203.7 42.7V76.7H161.6V118.9H127.6V42.7H203.7Z" fill="#0068E3"/>
<path d="M118.8 42.5H84.8V76.5H118.8V42.5Z" fill="#0068E3"/>
<path d="M76.6 42.8H42.6V76.8H76.6V42.8Z" fill="#0068E3"/>
</svg>
